<svg id="Ebene_1" data-name="Ebene 1" xmlns="http://www.w3.org/2000/svg" viewBox="0 0 51.66 51.66"><defs><style>.cls-1{fill:none;stroke:#000;stroke-miterlimit:10;stroke-width:3px;}</style></defs><title>Unbenannt-1</title><path d="M24.33,7.17h0a10.92,10.92,0,0,1,3,.42l21.52,6.14a11,11,0,0,1,7.56,13.6L50.27,48.85a11.06,11.06,0,0,1-10.6,8,10.92,10.92,0,0,1-3-.42L15.15,50.27a11,11,0,0,1-7.56-13.6l6.14-21.52a11.06,11.06,0,0,1,10.6-8m0-1a12.05,12.05,0,0,0-11.56,8.71L6.63,36.4a12,12,0,0,0,8.25,14.83L36.4,57.37a11.9,11.9,0,0,0,3.27.46,12.05,12.05,0,0,0,11.56-8.71L57.37,27.6a12,12,0,0,0-8.25-14.83L27.6,6.63a11.9,11.9,0,0,0-3.27-.46Z" transform="translate(-6.17 -6.17)"/><line class="cls-1" x1="46.58" y1="13.08" x2="3.64" y2="38.16"/></svg>