<?xml version="1.0" standalone="no"?>
<!DOCTYPE svg PUBLIC "-//W3C//DTD SVG 20010904//EN"
 "http://www.w3.org/TR/2001/REC-SVG-20010904/DTD/svg10.dtd">
<svg version="1.0" xmlns="http://www.w3.org/2000/svg"
 width="100.000000pt" height="100.000000pt" viewBox="0 0 100.000000 100.000000"
 preserveAspectRatio="xMidYMid meet">

<g transform="translate(0.000000,100.000000) scale(0.100000,-0.100000)"
fill="#000000" stroke="none">
<path d="M480 746 c-365 -68 -435 -84 -435 -98 0 -9 35 -44 77 -78 l78 -62 0
-139 c0 -173 3 -176 100 -90 38 34 74 60 79 57 5 -3 35 -42 67 -86 31 -44 63
-80 70 -80 15 0 444 623 444 645 0 9 -9 15 -22 14 -13 -1 -219 -38 -458 -83z
m1 -101 l-254 -105 -54 42 c-29 22 -56 44 -58 48 -3 4 50 17 118 30 67 12 199
37 292 55 94 18 179 33 190 34 11 0 -94 -47 -234 -104z m222 -147 c-91 -134
-171 -249 -178 -256 -10 -11 -25 4 -84 84 -47 64 -68 101 -61 108 8 8 481 305
487 306 1 0 -73 -109 -164 -242z m-23 178 c0 -2 -81 -54 -179 -115 -159 -98
-182 -116 -207 -158 -56 -98 -55 -98 -52 6 l3 95 210 87 c208 86 225 93 225
85z m-330 -296 c0 -5 -9 -14 -20 -20 -19 -10 -20 -10 -8 9 13 22 28 28 28 11z"/>
</g>
</svg>
