<?xml version="1.0" standalone="no"?>
<!DOCTYPE svg PUBLIC "-//W3C//DTD SVG 20010904//EN"
 "http://www.w3.org/TR/2001/REC-SVG-20010904/DTD/svg10.dtd">
<svg version="1.0" xmlns="http://www.w3.org/2000/svg"
 width="100.000000pt" height="100.000000pt" viewBox="0 0 100.000000 100.000000"
 preserveAspectRatio="xMidYMid meet">

<g transform="translate(0.000000,100.000000) scale(0.100000,-0.100000)"
fill="#000000" stroke="none">
<path d="M107 840 c-55 -43 -42 -143 22 -170 71 -29 141 17 141 93 0 58 -38
97 -96 97 -26 0 -51 -7 -67 -20z m99 -28 c24 -16 33 -47 21 -72 -18 -35 -41
-46 -74 -34 -38 13 -52 54 -29 88 16 26 57 35 82 18z"/>
<path d="M373 845 c-27 -19 -46 -75 -37 -109 3 -14 20 -37 36 -51 l30 -25 224
0 c249 0 271 5 294 59 17 42 5 95 -27 121 -24 19 -39 20 -262 20 -194 0 -240
-3 -258 -15z m498 -44 c24 -30 24 -56 -1 -81 -19 -19 -33 -20 -238 -20 l-219
0 -23 25 c-20 21 -22 30 -14 52 17 49 40 54 267 51 206 -3 209 -3 228 -27z"/>
<path d="M105 576 c-67 -67 -27 -176 65 -176 91 0 135 106 71 171 -39 38 -100
41 -136 5z m107 -33 c37 -33 11 -103 -39 -103 -28 0 -63 33 -63 60 0 26 34 60
62 60 12 0 30 -7 40 -17z"/>
<path d="M378 585 c-59 -33 -58 -139 3 -171 25 -12 69 -15 265 -12 234 3 236
3 255 27 39 48 37 104 -6 147 l-24 24 -233 0 c-184 -1 -239 -4 -260 -15z m492
-45 c11 -11 20 -29 20 -40 0 -11 -9 -29 -20 -40 -19 -19 -33 -20 -240 -20
-207 0 -221 1 -240 20 -11 11 -20 29 -20 40 0 11 9 29 20 40 19 19 33 20 240
20 207 0 221 -1 240 -20z"/>
<path d="M119 326 c-56 -32 -63 -126 -12 -166 16 -13 41 -20 67 -20 123 0 132
182 11 196 -25 3 -50 -1 -66 -10z m94 -43 c39 -45 15 -103 -43 -103 -31 0 -60
30 -60 62 0 25 36 58 63 58 13 0 31 -8 40 -17z"/>
<path d="M372 315 c-17 -14 -33 -38 -37 -54 -8 -36 16 -95 43 -110 13 -7 106
-11 255 -11 221 0 236 1 260 20 32 26 44 79 27 121 -23 54 -45 59 -294 59
l-224 0 -30 -25z m498 -35 c25 -25 25 -51 1 -81 -19 -24 -20 -24 -241 -24
-221 0 -222 0 -241 24 -24 30 -24 42 2 75 l20 26 220 0 c206 0 220 -1 239 -20z"/>
</g>
</svg>
