<?xml version="1.0" standalone="no"?>
<!DOCTYPE svg PUBLIC "-//W3C//DTD SVG 20010904//EN"
 "http://www.w3.org/TR/2001/REC-SVG-20010904/DTD/svg10.dtd">
<svg version="1.0" xmlns="http://www.w3.org/2000/svg"
 width="100.000000pt" height="100.000000pt" viewBox="0 0 100.000000 100.000000"
 preserveAspectRatio="xMidYMid meet">

<g transform="translate(0.000000,100.000000) scale(0.100000,-0.100000)"
fill="#000000" stroke="none">
<path d="M57 842 c-15 -16 -17 -53 -17 -308 0 -233 3 -294 14 -309 11 -16 30
-20 90 -23 73 -4 77 -6 92 -33 l15 -29 249 0 249 0 15 29 c15 27 19 29 92 33
60 3 79 7 90 23 11 15 14 76 14 310 0 270 -1 293 -18 308 -17 15 -62 17 -444
17 -399 0 -426 -1 -441 -18z m844 -22 c14 -8 19 -21 19 -50 l0 -40 -420 0
-420 0 0 40 c0 27 6 42 18 49 24 14 776 15 803 1z m17 -352 l-3 -223 -60 -3
-60 -3 -1 68 c-1 117 -56 207 -159 261 -43 23 -62 27 -135 27 -73 0 -92 -4
-135 -27 -103 -54 -158 -144 -159 -261 l-1 -68 -60 3 -60 3 -3 223 -2 222 420
0 420 0 -2 -222z m-318 71 c55 -25 105 -71 133 -124 28 -52 30 -164 4 -212
l-18 -33 -219 0 -219 0 -18 33 c-26 48 -24 160 4 212 65 123 214 178 333 124z"/>
<path d="M732 801 c-20 -12 -10 -46 13 -46 14 0 20 7 20 24 0 27 -13 35 -33
22z"/>
<path d="M791 796 c-15 -18 -3 -46 20 -46 25 0 35 26 19 45 -15 19 -24 19 -39
1z"/>
<path d="M862 801 c-20 -12 -10 -46 13 -46 14 0 20 7 20 24 0 27 -13 35 -33
22z"/>
<path d="M452 529 c-80 -15 -145 -71 -171 -148 -16 -50 -14 -136 4 -151 23
-19 29 -6 26 59 -5 153 142 254 273 186 30 -16 46 -12 46 11 0 31 -105 56
-178 43z"/>
<path d="M590 395 c-43 -44 -61 -55 -86 -55 -36 0 -74 -37 -74 -72 0 -25 44
-68 70 -68 34 0 73 46 67 79 -5 24 3 36 54 87 32 32 59 64 59 71 0 28 -38 10
-90 -42z m-70 -111 c11 -12 10 -18 -3 -32 -16 -15 -18 -15 -34 0 -13 14 -14
20 -3 32 7 9 16 16 20 16 4 0 13 -7 20 -16z"/>
</g>
</svg>
