<?xml version="1.0" standalone="no"?>
<!DOCTYPE svg PUBLIC "-//W3C//DTD SVG 20010904//EN"
 "http://www.w3.org/TR/2001/REC-SVG-20010904/DTD/svg10.dtd">
<svg version="1.0" xmlns="http://www.w3.org/2000/svg"
 width="100.000000pt" height="100.000000pt" viewBox="0 0 100.000000 100.000000"
 preserveAspectRatio="xMidYMid meet">

<g transform="translate(0.000000,100.000000) scale(0.100000,-0.100000)"
fill="#000000" stroke="none">
<path d="M473 916 c-66 -21 -128 -62 -163 -106 -36 -46 -70 -127 -70 -168 0
-21 -15 -43 -61 -87 -73 -72 -86 -98 -64 -131 11 -18 25 -24 50 -24 l35 0 0
-81 c0 -125 20 -148 127 -149 l72 0 3 -47 c2 -35 7 -48 18 -48 12 0 15 14 15
65 l0 65 -87 5 c-47 3 -90 9 -95 13 -4 5 -10 54 -13 110 l-5 102 -43 3 c-25 2
-42 8 -42 15 0 7 27 39 59 71 50 50 60 66 66 105 23 157 159 270 310 258 153
-11 270 -137 270 -287 -1 -72 -28 -146 -71 -191 -24 -25 -25 -28 -22 -180 3
-129 5 -154 18 -154 13 0 15 24 18 145 2 126 5 147 22 165 10 11 31 46 46 79
22 47 27 73 27 136 0 133 -62 234 -179 291 -75 37 -173 47 -241 25z"/>
<path d="M463 806 c-62 -29 -106 -85 -123 -157 -15 -62 -8 -71 51 -67 39 3 44
6 49 33 11 52 30 76 75 96 90 40 175 -19 175 -119 0 -52 -28 -87 -99 -120 -68
-33 -82 -57 -79 -137 l3 -60 50 0 50 0 3 48 c3 44 6 48 40 63 86 36 137 115
136 214 -1 102 -43 168 -134 209 -62 28 -132 27 -197 -3z m175 -31 c49 -21 81
-52 103 -100 46 -99 -1 -206 -114 -260 -38 -18 -42 -24 -45 -62 -2 -29 -8 -43
-18 -43 -21 0 -19 83 2 101 10 8 40 25 67 39 68 33 90 66 94 137 7 105 -57
173 -162 173 -72 0 -114 -26 -145 -88 -28 -58 -54 -71 -40 -21 31 107 155 167
258 124z"/>
<path d="M514 227 c-3 -9 -4 -30 -2 -49 3 -33 4 -33 53 -33 l50 0 0 45 0 45
-48 3 c-34 2 -49 -1 -53 -11z m66 -42 c0 -8 -7 -15 -15 -15 -8 0 -15 7 -15 15
0 8 7 15 15 15 8 0 15 -7 15 -15z"/>
</g>
</svg>
