<?xml version="1.0" standalone="no"?>
<!DOCTYPE svg PUBLIC "-//W3C//DTD SVG 20010904//EN"
 "http://www.w3.org/TR/2001/REC-SVG-20010904/DTD/svg10.dtd">
<svg version="1.0" xmlns="http://www.w3.org/2000/svg"
 width="100.000000pt" height="100.000000pt" viewBox="0 0 100.000000 100.000000"
 preserveAspectRatio="xMidYMid meet">

<g transform="translate(0.000000,100.000000) scale(0.100000,-0.100000)"
fill="#000000" stroke="none">
<path d="M417 914 c-67 -21 -131 -86 -151 -155 -20 -65 -20 -93 -1 -155 8 -27
15 -50 15 -50 0 -1 -6 -4 -14 -7 -7 -3 -53 21 -102 54 -49 32 -97 59 -106 59
-17 0 -18 -17 -18 -225 l0 -225 105 -70 c57 -38 107 -70 110 -70 3 0 60 29
126 64 l119 64 119 -64 c66 -35 123 -64 126 -64 3 0 53 32 110 70 l105 70 0
225 c0 208 -1 225 -17 225 -10 0 -58 -27 -107 -59 -84 -56 -125 -68 -111 -32
67 173 -31 342 -206 356 -33 3 -73 -1 -102 -11z m194 -58 c83 -56 116 -150 84
-246 -17 -52 -107 -192 -165 -260 l-30 -34 -30 34 c-98 114 -179 262 -180 325
0 83 68 182 142 204 53 17 135 6 179 -23z m-446 -306 l75 -51 0 -184 c0 -102
-2 -185 -5 -185 -3 0 -39 23 -80 50 l-75 51 0 184 c0 102 2 185 5 185 3 0 39
-23 80 -50z m755 -135 l0 -184 -75 -51 c-41 -27 -77 -50 -80 -50 -3 0 -5 83
-5 185 l0 184 73 50 c39 28 75 50 80 50 4 1 7 -82 7 -184z m-578 37 c20 -31
60 -84 88 -117 27 -32 50 -69 50 -80 0 -17 -23 -33 -105 -77 l-105 -56 0 187
c0 103 3 191 7 194 15 16 30 4 65 -51z m386 -139 l2 -191 -105 56 c-82 44
-105 60 -105 77 0 11 23 48 50 80 28 33 68 86 88 118 61 94 67 83 70 -140z"/>
<path d="M455 791 c-45 -20 -70 -60 -70 -112 0 -42 5 -53 33 -81 28 -28 39
-33 82 -33 43 0 54 5 82 33 28 28 33 39 33 82 0 42 -5 54 -31 81 -33 33 -92
46 -129 30z m96 -60 c16 -16 29 -39 29 -51 0 -28 -52 -80 -80 -80 -28 0 -80
52 -80 80 0 28 52 80 80 80 12 0 35 -13 51 -29z"/>
</g>
</svg>
