<?xml version="1.0" standalone="no"?>
<!DOCTYPE svg PUBLIC "-//W3C//DTD SVG 20010904//EN"
 "http://www.w3.org/TR/2001/REC-SVG-20010904/DTD/svg10.dtd">
<svg version="1.0" xmlns="http://www.w3.org/2000/svg"
 width="100.000000pt" height="100.000000pt" viewBox="0 0 100.000000 100.000000"
 preserveAspectRatio="xMidYMid meet">

<g transform="translate(0.000000,100.000000) scale(0.100000,-0.100000)"
fill="#000000" stroke="none">
<path d="M75 888 c-3 -7 -4 -186 -3 -398 l3 -385 45 0 45 0 3 133 3 132 129 0
130 0 0 -65 0 -65 250 0 c177 0 250 3 250 11 0 6 -36 60 -80 120 -44 60 -83
115 -86 122 -2 7 34 65 81 129 47 64 85 121 85 127 0 8 -52 11 -165 11 l-164
0 -3 68 -3 67 -258 3 c-201 2 -259 0 -262 -10z m485 -258 l0 -230 -225 0 -225
0 0 230 0 230 225 0 225 0 0 -230z m274 48 c-21 -29 -57 -79 -81 -110 -24 -31
-43 -62 -43 -68 0 -6 19 -37 43 -68 24 -31 60 -81 81 -109 l38 -53 -188 0
-188 0 52 53 52 53 0 177 0 177 136 0 136 0 -38 -52z m-694 -423 c0 -96 -3
-115 -15 -115 -12 0 -15 19 -15 115 0 96 3 115 15 115 12 0 15 -19 15 -115z
m390 112 c0 -2 -13 -16 -30 -32 l-30 -29 0 32 c0 29 3 32 30 32 17 0 30 -1 30
-3z"/>
</g>
</svg>
