<?xml version="1.0" standalone="no"?>
<!DOCTYPE svg PUBLIC "-//W3C//DTD SVG 20010904//EN"
 "http://www.w3.org/TR/2001/REC-SVG-20010904/DTD/svg10.dtd">
<svg version="1.0" xmlns="http://www.w3.org/2000/svg"
 width="100.000000pt" height="100.000000pt" viewBox="0 0 100.000000 100.000000"
 preserveAspectRatio="xMidYMid meet">

<g transform="translate(0.000000,100.000000) scale(0.100000,-0.100000)"
fill="#000000" stroke="none">
<path d="M236 862 c-88 -38 -161 -73 -163 -79 -3 -7 15 -32 38 -58 l42 -45
-42 -45 c-22 -24 -41 -49 -41 -55 0 -6 22 -20 50 -32 l50 -20 2 -161 3 -161
162 -69 163 -69 162 69 163 69 3 161 2 161 50 20 c28 12 50 26 50 32 0 6 -19
31 -41 55 l-42 45 42 45 c23 26 41 51 39 57 -4 10 -258 124 -319 143 -12 4
-33 -7 -64 -36 l-45 -42 -45 42 c-24 22 -48 41 -52 41 -5 -1 -80 -31 -167 -68z
m199 -12 c16 -16 27 -31 24 -33 -2 -2 -63 -28 -136 -59 l-132 -55 -32 33 c-18
19 -31 35 -28 37 14 10 247 106 260 106 8 1 28 -12 44 -29z m305 -22 c69 -28
127 -53 129 -55 3 -2 -10 -18 -28 -37 l-32 -33 -132 55 c-73 31 -134 57 -136
59 -7 5 51 63 63 63 6 0 67 -23 136 -52z m-240 -223 c12 0 16 18 20 86 l5 87
112 -47 c62 -25 113 -48 113 -51 0 -3 -56 -28 -125 -57 l-125 -52 -125 52
c-69 29 -125 54 -125 57 0 3 51 26 113 51 l112 47 5 -87 c4 -68 8 -86 20 -86z
m-41 -62 c7 -5 -51 -63 -64 -63 -10 0 -235 93 -256 106 -6 4 2 20 21 39 l32
33 131 -56 c73 -30 134 -57 136 -59z m404 46 c-11 -11 -244 -109 -258 -109
-13 0 -71 58 -64 63 2 2 63 29 134 59 l130 55 33 -30 c17 -17 29 -34 25 -38z
m-458 -159 c2 0 20 14 40 31 l35 31 0 -185 0 -186 -107 46 c-60 25 -120 50
-135 55 l-28 10 0 138 0 139 95 -39 c52 -22 97 -40 100 -40z m385 -59 l0 -139
-27 -10 c-16 -5 -76 -30 -135 -55 l-108 -46 0 186 0 185 36 -31 c40 -35 35
-36 149 13 44 19 81 35 83 35 1 1 2 -62 2 -138z"/>
<path d="M730 295 c0 -42 3 -55 15 -55 12 0 15 13 15 55 0 42 -3 55 -15 55
-12 0 -15 -13 -15 -55z"/>
<path d="M664 327 c-11 -29 0 -102 16 -102 19 0 22 106 3 112 -7 3 -16 -2 -19
-10z"/>
</g>
</svg>
