<?xml version="1.0" standalone="no"?>
<!DOCTYPE svg PUBLIC "-//W3C//DTD SVG 20010904//EN"
 "http://www.w3.org/TR/2001/REC-SVG-20010904/DTD/svg10.dtd">
<svg version="1.0" xmlns="http://www.w3.org/2000/svg"
 width="100.000000pt" height="100.000000pt" viewBox="0 0 100.000000 100.000000"
 preserveAspectRatio="xMidYMid meet">

<g transform="translate(0.000000,100.000000) scale(0.100000,-0.100000)"
fill="#000000" stroke="none">
<path d="M432 890 c-115 -17 -234 -106 -287 -213 -32 -67 -46 -158 -35 -236 9
-62 43 -151 57 -151 5 0 37 21 72 46 53 38 62 49 56 67 -28 93 -27 133 5 197
55 109 192 155 298 101 48 -24 50 -31 22 -56 -30 -27 -24 -43 18 -54 125 -32
244 -53 252 -45 7 7 -17 151 -45 272 -7 27 -26 28 -50 2 -24 -26 -28 -25 -76
9 -72 52 -183 76 -287 61z m153 -45 c33 -9 85 -33 115 -53 71 -48 68 -47 90
-27 16 14 20 15 24 4 6 -17 36 -168 36 -179 0 -4 -37 1 -82 11 -117 27 -114
26 -92 50 25 28 12 47 -56 82 -41 20 -68 27 -113 27 -90 0 -135 -17 -193 -75
-62 -62 -79 -114 -71 -219 5 -72 5 -74 -23 -95 -16 -11 -33 -21 -38 -21 -16 0
-37 92 -37 155 2 157 111 298 265 339 72 19 103 19 175 1z"/>
<path d="M257 299 c-31 -22 -57 -43 -57 -45 0 -30 115 -118 146 -112 18 3 52
84 53 129 1 26 -44 69 -71 69 -7 0 -39 -18 -71 -41z m101 -25 c6 -3 -21 -84
-27 -84 -4 0 -23 12 -44 26 l-38 25 38 28 c29 22 41 26 53 18 8 -6 16 -12 18
-13z"/>
<path d="M628 317 c-32 -26 -34 -50 -9 -122 11 -31 25 -51 35 -53 31 -6 146
82 146 112 0 9 -116 86 -130 86 -8 -1 -27 -11 -42 -23z m120 -73 c5 -3 -71
-54 -79 -54 -3 0 -11 18 -18 41 -11 36 -10 42 5 54 16 11 23 9 54 -13 19 -14
36 -27 38 -28z"/>
<path d="M451 266 c-13 -17 -41 -107 -41 -131 0 -19 7 -23 45 -27 25 -3 65 -3
90 0 38 4 45 8 45 27 0 25 -29 116 -41 130 -12 13 -88 13 -98 1z m84 -73 c7
-23 10 -45 7 -48 -7 -7 -77 -7 -85 1 -3 3 -1 20 5 37 5 18 12 38 14 45 2 7 14
12 25 10 16 -2 25 -15 34 -45z"/>
</g>
</svg>
