<?xml version="1.0" standalone="no"?>
<!DOCTYPE svg PUBLIC "-//W3C//DTD SVG 20010904//EN"
 "http://www.w3.org/TR/2001/REC-SVG-20010904/DTD/svg10.dtd">
<svg version="1.0" xmlns="http://www.w3.org/2000/svg"
 width="100.000000pt" height="100.000000pt" viewBox="0 0 100.000000 100.000000"
 preserveAspectRatio="xMidYMid meet">

<g transform="translate(0.000000,100.000000) scale(0.100000,-0.100000)"
fill="#000000" stroke="none">
<path d="M74 826 l-34 -34 0 -292 0 -292 34 -34 34 -34 392 0 392 0 34 34 34
34 0 292 0 292 -34 34 -34 34 -392 0 -392 0 -34 -34z m356 -61 l64 -65 -85 0
-85 0 -64 65 -64 65 85 0 85 0 64 -65z m230 0 l64 -65 -85 0 -85 0 -64 65 -64
65 85 0 85 0 64 -65z m234 36 c19 -18 26 -35 26 -63 l0 -38 -68 0 -68 0 -64
66 -65 66 107 -4 c96 -3 109 -6 132 -27z m-679 -41 l59 -60 -97 0 -97 0 0 37
c0 40 31 83 60 83 8 0 42 -27 75 -60z m705 -318 l0 -219 -26 -24 -26 -24 -368
0 -368 0 -26 24 -26 24 0 219 0 218 420 0 420 0 0 -218z"/>
<path d="M400 456 c0 -91 4 -147 11 -151 14 -9 254 129 254 146 0 14 -227 149
-251 149 -11 0 -14 -27 -14 -144z m125 42 c41 -24 75 -45 75 -48 0 -4 -123
-76 -152 -88 -5 -2 -8 37 -8 87 0 50 2 91 5 91 3 0 39 -19 80 -42z"/>
</g>
</svg>
